<?xml version="1.0" encoding="UTF-8"?>
<svg xmlns="http://www.w3.org/2000/svg" xmlns:xlink="http://www.w3.org/1999/xlink" width="48px" height="48px" viewBox="0 0 48 48" version="1.1">
<g id="surface1">
<path style=" stroke:none;fill-rule:nonzero;fill:rgb(0.392157%,0%,0.784314%);fill-opacity:1;" d="M 24 48 C 10.765625 48 0 37.234375 0 24 C 0 10.765625 10.765625 0 24 0 C 37.234375 0 48 10.765625 48 24 C 48 37.234375 37.234375 48 24 48 Z M 24 2.015625 C 11.878906 2.015625 2.015625 11.878906 2.015625 24 C 2.015625 36.121094 11.878906 45.984375 24 45.984375 C 36.121094 45.984375 45.984375 36.121094 45.984375 24 C 45.984375 11.878906 36.121094 2.015625 24 2.015625 Z M 24 2.015625 "/>
<path style=" stroke:none;fill-rule:nonzero;fill:rgb(0.392157%,0%,0.784314%);fill-opacity:1;" d="M 1.34375 22.992188 L 46.65625 22.992188 L 46.65625 25.007812 L 1.34375 25.007812 Z M 1.34375 22.992188 "/>
<path style=" stroke:none;fill-rule:nonzero;fill:rgb(0.392157%,0%,0.784314%);fill-opacity:1;" d="M 24.542969 14.527344 C 13.167969 14.527344 4.679688 12.023438 4.148438 11.863281 L 4.734375 9.933594 C 4.921875 9.992188 24.066406 15.625 43.179688 9.933594 L 43.753906 11.863281 C 37.046875 13.863281 30.410156 14.527344 24.542969 14.527344 Z M 24.542969 14.527344 "/>
<path style=" stroke:none;fill-rule:nonzero;fill:rgb(0.392157%,0%,0.784314%);fill-opacity:1;" d="M 4.773438 37.554688 L 4.199219 35.625 C 23.910156 29.757812 43 35.382812 43.804688 35.625 L 43.222656 37.554688 C 43.027344 37.496094 23.890625 31.863281 4.773438 37.554688 Z M 4.773438 37.554688 "/>
<path style=" stroke:none;fill-rule:nonzero;fill:rgb(0.392157%,0%,0.784314%);fill-opacity:1;" d="M 16.230469 45.878906 C 6.300781 22.628906 14.871094 2.011719 14.960938 1.808594 L 16.8125 2.597656 C 16.726562 2.796875 8.503906 22.65625 18.085938 45.089844 Z M 16.230469 45.878906 "/>
<path style=" stroke:none;fill-rule:nonzero;fill:rgb(0.392157%,0%,0.784314%);fill-opacity:1;" d="M 31.613281 45.878906 L 29.761719 45.089844 C 39.34375 22.65625 31.117188 2.796875 31.03125 2.597656 L 32.886719 1.808594 C 32.972656 2.011719 41.542969 22.628906 31.613281 45.878906 Z M 31.613281 45.878906 "/>
<path style=" stroke:none;fill-rule:nonzero;fill:rgb(0.392157%,0%,0.784314%);fill-opacity:1;" d="M 22.992188 1.34375 L 25.007812 1.34375 L 25.007812 47.488281 L 22.992188 47.488281 Z M 22.992188 1.34375 "/>
</g>
</svg>
